<svg width="364" height="409" viewBox="0 0 364 409" fill="none" xmlns="http://www.w3.org/2000/svg" style="">
<g id="Group 1" filter="url(#filter0_i)">
<g id="Ellipse 1" filter="url(#filter1_b)">
<path stroke="url(#paint0_linear)" stroke-width="5" d="M2.5,182A179.5,179.5 0,1,1 361.5,182A179.5,179.5 0,1,1 2.5,182" class="vwgiTVRj_0"></path>
</g>
<path id="H" d="M239.56 185.624L185.704 184.184C169.576 184.184 149.032 184.664 124.072 185.624V238.616C124.072 264.728 125.224 277.88 127.528 278.072C130.984 278.648 137.512 278.936 147.112 278.936C147.496 280.28 147.688 281.816 147.688 283.544C147.688 285.272 147.496 286.712 147.112 287.864L118.6 287C99.976 287 84.616 287.768 72.52 289.304C71.56 288.152 71.08 286.52 71.08 284.408L71.368 282.104C81.352 279.8 87.88 276.248 90.952 271.448C93.448 267.608 95.08 262.808 95.848 257.048C98.152 239.576 99.304 212.6 99.304 176.12V128.024C99.304 101.912 98.152 88.76 95.848 88.568C92.392 87.992 85.864 87.704 76.264 87.704C75.88 86.36 75.688 84.824 75.688 83.096C75.688 81.368 75.88 79.928 76.264 78.776C76.264 78.776 86.152 79.064 105.928 79.64C123.784 79.64 137.512 78.872 147.112 77.336C147.88 78.872 148.264 81.272 148.264 84.536C142.696 85.88 138.376 88.088 135.304 91.16C132.232 94.04 130.312 96.728 129.544 99.224C126.664 108.44 124.84 133.016 124.072 172.952C143.272 173.72 163.816 174.104 185.704 174.104L239.56 172.952V128.024C239.56 101.912 238.408 88.76 236.104 88.568C232.456 87.992 225.928 87.704 216.52 87.704C215.944 86.36 215.656 84.824 215.656 83.096C215.656 81.368 215.944 79.928 216.52 78.776L246.184 79.64C264.04 79.64 277.672 78.872 287.08 77.336C287.848 79.064 288.232 81.464 288.232 84.536C282.664 86.072 278.344 88.28 275.272 91.16C272.2 94.04 270.184 96.824 269.224 99.512C268.456 102.008 267.88 105.368 267.496 109.592C265.192 129.944 264.04 152.6 264.04 177.56V238.616C264.04 264.728 265.192 277.88 267.496 278.072C271.144 278.648 278.248 278.936 288.808 278.936C289.192 280.28 289.384 281.816 289.384 283.544C289.384 285.272 289.192 286.712 288.808 287.864L258.856 287C238.312 287 221.608 287.768 208.744 289.304C207.784 288.152 207.304 286.52 207.304 284.408L207.592 282.104C219.112 279.416 226.504 276.44 229.768 273.176C233.224 269.912 235.336 264.536 236.104 257.048C238.216 237.464 239.368 213.656 239.56 185.624Z" fill="url(#paint1_linear)" class="vwgiTVRj_1"></path>
</g>
<defs>
<filter id="filter0_i" x="0" y="0" width="364" height="368" filterUnits="userSpaceOnUse" color-interpolation-filters="sRGB">
<feFlood flood-opacity="0" result="BackgroundImageFix"></feFlood>
<feBlend mode="normal" in="SourceGraphic" in2="BackgroundImageFix" result="shape"></feBlend>
<feColorMatrix in="SourceAlpha" type="matrix" values="0 0 0 0 0 0 0 0 0 0 0 0 0 0 0 0 0 0 127 0" result="hardAlpha"></feColorMatrix>
<feOffset dy="4"></feOffset>
<feGaussianBlur stdDeviation="2"></feGaussianBlur>
<feComposite in2="hardAlpha" operator="arithmetic" k2="-1" k3="1"></feComposite>
<feColorMatrix type="matrix" values="0 0 0 0 0 0 0 0 0 0 0 0 0 0 0 0 0 0 0.25 0"></feColorMatrix>
<feBlend mode="normal" in2="shape" result="effect1_innerShadow"></feBlend>
</filter>
<filter id="filter1_b" x="-4" y="-4" width="372" height="372" filterUnits="userSpaceOnUse" color-interpolation-filters="sRGB">
<feFlood flood-opacity="0" result="BackgroundImageFix"></feFlood>
<feGaussianBlur in="BackgroundImage" stdDeviation="2"></feGaussianBlur>
<feComposite in2="SourceAlpha" operator="in" result="effect1_backgroundBlur"></feComposite>
<feBlend mode="normal" in="SourceGraphic" in2="effect1_backgroundBlur" result="shape"></feBlend>
</filter>
<linearGradient id="paint0_linear" x1="182" y1="0" x2="182" y2="364" gradientUnits="userSpaceOnUse">
<stop stop-color="#37170C" stop-opacity="0.98"></stop>
<stop offset="0.119792" stop-color="#835741"></stop>
<stop offset="0.223958" stop-color="#46281B"></stop>
<stop offset="0.338542" stop-color="#755949"></stop>
<stop offset="0.5" stop-color="#FAE2CC"></stop>
<stop offset="0.630208" stop-color="#56463F"></stop>
<stop offset="0.71875" stop-color="#150806"></stop>
<stop offset="0.854167" stop-color="#724F3C"></stop>
<stop offset="1" stop-color="#020100"></stop>
</linearGradient>
<linearGradient id="paint1_linear" x1="182" y1="5" x2="182" y2="409" gradientUnits="userSpaceOnUse">
<stop stop-color="#37170C" stop-opacity="0.98"></stop>
<stop offset="0.119792" stop-color="#835741"></stop>
<stop offset="0.223958" stop-color="#46281B"></stop>
<stop offset="0.338542" stop-color="#755949"></stop>
<stop offset="0.5" stop-color="#FAE2CC"></stop>
<stop offset="0.630208" stop-color="#56463F"></stop>
<stop offset="0.71875" stop-color="#150806"></stop>
<stop offset="0.854167" stop-color="#724F3C"></stop>
<stop offset="1" stop-color="#020100"></stop>
</linearGradient>
</defs>
<style data-made-with="vivus-instant">.vwgiTVRj_0{stroke-dasharray:1129 1131;stroke-dashoffset:1130;animation:vwgiTVRj_draw 1333ms linear 0ms forwards;}.vwgiTVRj_1{stroke-dasharray:1477 1479;stroke-dashoffset:1478;animation:vwgiTVRj_draw 1333ms linear 666ms forwards;}@keyframes vwgiTVRj_draw{100%{stroke-dashoffset:0;}}@keyframes vwgiTVRj_fade{0%{stroke-opacity:1;}93.54838709677419%{stroke-opacity:1;}100%{stroke-opacity:0;}}</style></svg>
